<svg width="18" height="18" viewBox="0 0 18 18" fill="none" xmlns="http://www.w3.org/2000/svg">
<path d="M14.1384 10.9831C13.5786 10.8627 13.1358 11.1226 12.7437 11.3496C12.3422 11.5834 11.5786 12.2028 11.141 12.0443C8.90025 11.1217 6.79279 9.16048 5.88051 6.91076C5.71972 6.46376 6.33622 5.69538 6.56837 5.28909C6.79365 4.8958 7.04816 4.44881 6.93208 3.88486C6.82718 3.37809 5.47036 1.6516 4.99058 1.17948C4.67416 0.867625 4.35 0.696102 4.01724 0.668381C2.76618 0.614672 1.36895 2.28398 1.12389 2.68334C0.50997 3.53489 0.513409 4.66797 1.13421 6.04189C2.63033 9.73222 8.28891 15.3015 11.9931 16.8539C12.6766 17.1735 13.3018 17.3338 13.8632 17.3338C14.4127 17.3338 14.9019 17.1804 15.3224 16.8764C15.6396 16.6936 17.3774 15.227 17.3318 13.9423C17.3043 13.6149 17.1332 13.2874 16.8254 12.9704C16.3567 12.4861 14.6414 11.0888 14.1384 10.9831" fill="white"/>
</svg>
