<svg width="20" height="20" viewBox="0 0 20 20" fill="none" xmlns="http://www.w3.org/2000/svg">
<path d="M15.1384 11.9832C14.5786 11.8628 14.1358 12.1227 13.7437 12.3497C13.3422 12.5836 12.5786 13.203 12.141 13.0444C9.90025 12.1218 7.79279 10.1606 6.88051 7.91088C6.71972 7.46388 7.33622 6.6955 7.56837 6.28921C7.79365 5.89593 8.04816 5.44893 7.93209 4.88498C7.82718 4.37821 6.47036 2.65173 5.99058 2.17961C5.67416 1.86775 5.35 1.69622 5.01724 1.6685C3.76618 1.61479 2.36895 3.28411 2.12389 3.68346C1.50997 4.53501 1.51341 5.6681 2.13421 7.04201C3.63033 10.7323 9.28891 16.3016 12.9931 17.854C13.6767 18.1736 14.3018 18.3339 14.8632 18.3339C15.4127 18.3339 15.9019 18.1806 16.3224 17.8765C16.6396 17.6937 18.3774 16.2271 18.3318 14.9424C18.3043 14.615 18.1332 14.2875 17.8254 13.9705C17.3567 13.4862 15.6414 12.0889 15.1384 11.9832Z" fill="#666666"/>
</svg>
