<svg width="28" height="28" viewBox="0 0 28 28" fill="none" xmlns="http://www.w3.org/2000/svg">
<path d="M14 27.625C10.3864 27.625 6.92085 26.1895 4.36567 23.6343C1.81049 21.0791 0.375 17.6136 0.375 14C0.375 10.3864 1.81049 6.92085 4.36567 4.36567C6.92085 1.81049 10.3864 0.375 14 0.375C17.6136 0.375 21.0791 1.81049 23.6343 4.36567C26.1895 6.92085 27.625 10.3864 27.625 14C27.625 17.6136 26.1895 21.0791 23.6343 23.6343C21.0791 26.1895 17.6136 27.625 14 27.625Z" stroke="white" stroke-width="0.75"/>
<path d="M9.09224 18.3512C8.63442 17.8934 8.37722 17.2725 8.37722 16.625C8.37722 15.9775 8.63442 15.3566 9.09224 14.8988L11.3196 12.6714L10.2616 11.6134L8.03423 13.8408C7.29581 14.5792 6.88097 15.5807 6.88097 16.625C6.88097 17.6693 7.29581 18.6708 8.03423 19.4092C8.77266 20.1477 9.77418 20.5625 10.8185 20.5625C11.8628 20.5625 12.8643 20.1477 13.6027 19.4092L15.8301 17.1818L14.7721 16.1238L12.5447 18.3512C12.0869 18.809 11.4659 19.0662 10.8185 19.0662C10.171 19.0662 9.55006 18.809 9.09224 18.3512V18.3512ZM11.9322 16.625L16.3869 12.1702L15.2732 11.0565L10.8185 15.5113L11.9322 16.625ZM13.6027 8.2723L11.3753 10.4997L12.4333 11.5577L14.6607 9.33031C14.8874 9.10362 15.1565 8.9238 15.4527 8.80111C15.7489 8.67843 16.0663 8.61528 16.3869 8.61528C16.7075 8.61528 17.025 8.67843 17.3212 8.80111C17.6173 8.9238 17.8865 9.10362 18.1132 9.33031C18.3398 9.557 18.5197 9.82612 18.6424 10.1223C18.765 10.4185 18.8282 10.7359 18.8282 11.0565C18.8282 11.3771 18.765 11.6946 18.6424 11.9908C18.5197 12.2869 18.3398 12.5561 18.1132 12.7828L15.8858 15.0101L16.9438 16.0682L19.1712 13.8408C19.9096 13.1023 20.3244 12.1008 20.3244 11.0565C20.3244 10.0122 19.9096 9.01073 19.1712 8.2723C18.4327 7.53388 17.4312 7.11903 16.3869 7.11903C15.3426 7.11903 14.3411 7.53388 13.6027 8.2723V8.2723Z" fill="white"/>
</svg>
