<svg width="44" height="44" viewBox="0 0 44 44" fill="none" xmlns="http://www.w3.org/2000/svg">
<circle cx="22" cy="22" r="21.25" stroke="#1A1A1A" stroke-width="1.5"/>
<path fill-rule="evenodd" clip-rule="evenodd" d="M26.939 13C28.28 13 29.57 13.53 30.519 14.481C31.469 15.43 32 16.71 32 18.05V25.95C32 28.74 29.73 31 26.939 31H17.06C14.269 31 12 28.74 12 25.95V18.05C12 15.26 14.259 13 17.06 13H26.939ZM28.53 19.54L28.61 19.46C28.849 19.17 28.849 18.75 28.599 18.46C28.46 18.311 28.269 18.22 28.07 18.2C27.86 18.189 27.66 18.26 27.509 18.4L23 22C22.42 22.481 21.589 22.481 21 22L16.5 18.4C16.189 18.17 15.759 18.2 15.5 18.47C15.23 18.74 15.2 19.17 15.429 19.47L15.56 19.6L20.11 23.15C20.67 23.59 21.349 23.83 22.06 23.83C22.769 23.83 23.46 23.59 24.019 23.15L28.53 19.54Z" fill="#1A1A1A"/>
</svg>
