<svg width="28" height="28" viewBox="0 0 28 28" fill="none" xmlns="http://www.w3.org/2000/svg">
<path d="M14 27.625C10.3864 27.625 6.92085 26.1895 4.36567 23.6343C1.81049 21.0791 0.375 17.6136 0.375 14C0.375 10.3864 1.81049 6.92085 4.36567 4.36567C6.92085 1.81049 10.3864 0.375 14 0.375C17.6136 0.375 21.0791 1.81049 23.6343 4.36567C26.1895 6.92085 27.625 10.3864 27.625 14C27.625 17.6136 26.1895 21.0791 23.6343 23.6343C21.0791 26.1895 17.6136 27.625 14 27.625Z" stroke="white" stroke-width="0.75"/>
<path d="M17.5617 14.0586H15.3526V21.9713H12.0572V14.0586H10.5V11.2701H12.0572V9.45941C12.0518 8.97096 12.1378 8.48581 12.3107 8.02897C12.5007 7.49746 12.8481 7.03643 13.3066 6.70717C13.9164 6.3014 14.6388 6.09861 15.3707 6.12775L17.8152 6.14585V8.86188H16.0407C15.8775 8.85607 15.7175 8.90729 15.588 9.00674C15.5052 9.0852 15.4411 9.18126 15.4004 9.28781C15.3596 9.39435 15.3433 9.50869 15.3526 9.62238V11.2701H17.8514L17.5617 14.0586Z" fill="white"/>
</svg>
