<svg width="44" height="44" viewBox="0 0 44 44" fill="none" xmlns="http://www.w3.org/2000/svg">
<circle cx="22" cy="22" r="21.25" stroke="#1A1A1A" stroke-width="1.5"/>
<path fill-rule="evenodd" clip-rule="evenodd" d="M13.5 20.3178C13.5 15.7179 17.3439 12 21.9934 12C26.6561 12 30.5 15.7179 30.5 20.3178C30.5 22.6357 29.657 24.7876 28.2695 26.6116C26.7388 28.6235 24.8522 30.3765 22.7285 31.7524C22.2425 32.0704 21.8039 32.0944 21.2705 31.7524C19.1347 30.3765 17.2481 28.6235 15.7305 26.6116C14.342 24.7876 13.5 22.6357 13.5 20.3178ZM19.1942 20.5768C19.1942 22.1177 20.4517 23.3297 21.9934 23.3297C23.5362 23.3297 24.8058 22.1177 24.8058 20.5768C24.8058 19.0478 23.5362 17.7768 21.9934 17.7768C20.4517 17.7768 19.1942 19.0478 19.1942 20.5768Z" fill="#1A1A1A"/>
</svg>
