<svg width="28" height="28" viewBox="0 0 28 28" fill="none" xmlns="http://www.w3.org/2000/svg">
<g opacity="0.7">
<path d="M14 27.625C10.3864 27.625 6.92085 26.1895 4.36567 23.6343C1.81049 21.0791 0.375 17.6136 0.375 14C0.375 10.3864 1.81049 6.92085 4.36567 4.36567C6.92085 1.81049 10.3864 0.375 14 0.375C17.6136 0.375 21.0791 1.81049 23.6343 4.36567C26.1895 6.92085 27.625 10.3864 27.625 14C27.625 17.6136 26.1895 21.0791 23.6343 23.6343C21.0791 26.1895 17.6136 27.625 14 27.625Z" stroke="white" stroke-width="0.75"/>
<path d="M17.3589 6.8812C18.1813 7.32128 18.8708 7.97364 19.3557 8.77047C19.8269 9.53274 20.0762 10.4114 20.0754 11.3075C20.0923 12.398 19.8809 13.48 19.4546 14.4838C19.0942 15.3568 18.5072 16.1177 17.7543 16.688C17.0154 17.2346 16.1183 17.5252 15.1992 17.5157C14.7288 17.5181 14.2652 17.4039 13.8497 17.1832C13.4848 17.0137 13.1826 16.7336 12.9861 16.3825L12.3563 18.8656C12.1412 19.5669 11.826 20.2335 11.4206 20.8449C11.2647 21.0968 11.0308 21.4267 10.7189 21.8345C10.7015 21.8518 10.6799 21.8642 10.6562 21.8704C10.6325 21.8767 10.6076 21.8765 10.584 21.87C10.5617 21.8678 10.5411 21.8573 10.5261 21.8407C10.5111 21.8241 10.5029 21.8024 10.503 21.7801C10.3071 20.6422 10.313 19.4787 10.5205 18.3429L11.6901 13.4132L11.6181 13.2333C11.5558 13.0698 11.5076 12.9012 11.4742 12.7295C11.426 12.4865 11.4019 12.2394 11.4022 11.9917C11.3958 11.5809 11.4756 11.1732 11.6366 10.7952C11.7741 10.466 11.9904 10.1756 12.2663 9.9495C12.5147 9.74528 12.8264 9.63394 13.148 9.63461C13.3229 9.62545 13.4974 9.65825 13.657 9.73024C13.8166 9.80222 13.9568 9.91132 14.0657 10.0484C14.2791 10.3183 14.3821 10.6592 14.354 11.0021C14.3428 11.3185 14.2944 11.6326 14.21 11.9377C14.1624 12.1537 14.0544 12.5255 13.8862 13.0533C13.7422 13.5451 13.6341 13.929 13.5618 14.2049C13.489 14.4942 13.5079 14.799 13.6158 15.0771C13.7192 15.3418 13.9056 15.5659 14.1471 15.7159C14.3971 15.8735 14.6877 15.955 14.9833 15.9502C15.2673 15.9481 15.5479 15.888 15.8078 15.7735C16.0677 15.659 16.3015 15.4926 16.4947 15.2845C16.9577 14.7911 17.2996 14.1968 17.4934 13.5486C17.745 12.773 17.8696 11.9619 17.8622 11.1465C17.8738 10.5215 17.7218 9.90432 17.4214 9.35615C17.128 8.83487 16.6868 8.41225 16.1533 8.14163C15.5185 7.8189 14.8136 7.65816 14.1016 7.67379C13.267 7.65982 12.445 7.87785 11.727 8.30356C11.0802 8.67443 10.5479 9.21596 10.1881 9.86897C9.82387 10.5235 9.63496 11.2611 9.63975 12.0102C9.61857 12.6557 9.82903 13.2876 10.2331 13.7915C10.2989 13.8587 10.3508 13.9382 10.386 14.0254C10.4035 14.1149 10.4003 14.2073 10.3766 14.2953L10.1791 15.015C10.1714 15.0624 10.1528 15.1074 10.1247 15.1464C10.0967 15.1855 10.0601 15.2175 10.0176 15.24C9.97269 15.2609 9.92397 15.2726 9.87442 15.2742C9.82486 15.2758 9.77548 15.2674 9.72927 15.2494C9.11717 14.9853 8.62391 14.5048 8.3438 13.8999C8.0184 13.2403 7.85802 12.5115 7.87642 11.7762C7.87987 10.8637 8.12845 9.96881 8.59616 9.18522C9.11137 8.28651 9.85663 7.54124 10.7553 7.02603C11.8538 6.41217 13.0959 6.10166 14.354 6.12637C15.4042 6.11211 16.44 6.37232 17.3589 6.8812Z" fill="white"/>
</g>
</svg>
