<svg width="20" height="20" viewBox="0 0 20 20" fill="none" xmlns="http://www.w3.org/2000/svg">
<path fill-rule="evenodd" clip-rule="evenodd" d="M10.0003 18.3334C5.40033 18.3334 1.66699 14.6084 1.66699 10.0001C1.66699 5.40008 5.40033 1.66675 10.0003 1.66675C14.6087 1.66675 18.3337 5.40008 18.3337 10.0001C18.3337 14.6084 14.6087 18.3334 10.0003 18.3334ZM12.6587 13.0917C12.7587 13.1501 12.867 13.1834 12.9837 13.1834C13.192 13.1834 13.4003 13.0751 13.517 12.8751C13.692 12.5834 13.6003 12.2001 13.3003 12.0167L10.3337 10.2501V6.40008C10.3337 6.05008 10.0503 5.77508 9.70866 5.77508C9.36699 5.77508 9.08366 6.05008 9.08366 6.40008V10.6084C9.08366 10.8251 9.20033 11.0251 9.39199 11.1417L12.6587 13.0917Z" fill="#666666"/>
</svg>
