<svg width="28" height="28" viewBox="0 0 28 28" fill="none" xmlns="http://www.w3.org/2000/svg">
<g opacity="0.7">
<path d="M14 27.625C10.3864 27.625 6.92085 26.1895 4.36567 23.6343C1.81049 21.0791 0.375 17.6136 0.375 14C0.375 10.3864 1.81049 6.92085 4.36567 4.36567C6.92085 1.81049 10.3864 0.375 14 0.375C17.6136 0.375 21.0791 1.81049 23.6343 4.36567C26.1895 6.92085 27.625 10.3864 27.625 14C27.625 17.6136 26.1895 21.0791 23.6343 23.6343C21.0791 26.1895 17.6136 27.625 14 27.625Z" stroke="white" stroke-width="0.75"/>
<path d="M20.363 11.1003V11.517C20.3582 12.6306 20.1558 13.7346 19.7652 14.7775C19.356 15.866 18.7547 16.8723 17.99 17.7484C17.185 18.666 16.198 19.4062 15.0917 19.9221C13.8452 20.4834 12.4917 20.7677 11.1246 20.7554C10.2293 20.7569 9.33849 20.6287 8.4799 20.3749C7.64755 20.134 6.85438 19.774 6.125 19.3062C6.3786 19.3306 6.63826 19.3427 6.90394 19.3424C7.63783 19.3449 8.36679 19.2223 9.05957 18.9801C9.73745 18.7442 10.3734 18.4018 10.9435 17.9657C10.2617 17.9483 9.60271 17.717 9.05957 17.3046C8.51707 16.9064 8.11696 16.3444 7.91835 15.7014C8.11549 15.738 8.31562 15.7562 8.51613 15.7557C8.80341 15.7561 9.08954 15.7196 9.36752 15.6471C8.88535 15.551 8.43242 15.3431 8.04514 15.0402C7.65029 14.7367 7.331 14.346 7.11224 13.8986C6.8897 13.4505 6.76909 12.9587 6.75902 12.4584V12.4041C7.21028 12.6679 7.72175 12.8114 8.2444 12.8208C7.80129 12.5234 7.43753 12.1223 7.18471 11.6523C6.92539 11.1776 6.79136 10.6445 6.79526 10.1036C6.79342 9.53125 6.94342 8.96864 7.22999 8.47323C8.0482 9.47652 9.06712 10.2977 10.2213 10.8841C11.3756 11.4705 12.6396 11.8091 13.9324 11.8783C13.8837 11.6338 13.8594 11.385 13.8599 11.1356C13.8549 10.5629 14.0051 9.99951 14.2947 9.50533C14.5807 9.01371 14.9896 8.60485 15.4812 8.31882C15.9711 8.02608 16.5317 7.87263 17.1024 7.87503C17.5478 7.87396 17.9887 7.96519 18.3971 8.14298C18.8055 8.32076 19.1727 8.58126 19.4754 8.90801C20.2053 8.76577 20.9043 8.49596 21.5405 8.11097C21.4236 8.48986 21.2361 8.84322 20.988 9.15252C20.7426 9.45869 20.4452 9.71932 20.1094 9.92242C20.76 9.84167 21.3949 9.66461 21.9934 9.39708C21.5531 10.0553 21.0013 10.6316 20.363 11.1003Z" fill="white"/>
</g>
</svg>
