<svg width="17" height="17" viewBox="0 0 17 17" fill="none" xmlns="http://www.w3.org/2000/svg">
<path d="M10.2198 0.261326C6.84176 -0.533057 3.9973 0.497575 1.78026 3.16302C0.719505 4.43808 0.163524 5.94164 0.0275409 7.5971C0.0236679 7.64444 0.00946718 7.69091 0 7.73782C0 8.08165 0 8.42505 0 8.76888C0.040881 9.06538 0.0718645 9.36359 0.124364 9.65837C0.495736 11.73 1.51475 13.4203 3.15859 14.7272C4.46507 15.766 5.95959 16.3444 7.62581 16.4743C7.66196 16.4773 7.69725 16.4911 7.73296 16.5001C8.07679 16.5001 8.42019 16.5001 8.76402 16.5001C9.06568 16.4588 9.36863 16.4248 9.669 16.3745C12.8633 15.837 15.5262 13.3325 16.2702 10.1683C17.3086 5.75315 14.6367 1.30013 10.2198 0.261326ZM6.5203 14.2999C4.56834 13.6854 3.20421 12.4421 2.40036 10.5719C3.4779 10.0031 4.80244 10.0224 5.81672 10.9154C6.85295 11.8272 7.02938 13.2533 6.5203 14.2999ZM8.2386 10.1859C7.43948 10.1816 6.79098 9.52152 6.79873 8.71896C6.80604 7.92759 7.46272 7.28339 8.25753 7.28727C9.05751 7.29157 9.70472 7.95083 9.6974 8.75382C9.69009 9.54562 9.03384 10.1898 8.2386 10.1859ZM9.98056 14.3007C9.51365 13.3751 9.57906 12.0114 10.534 11.0561C11.5185 10.0711 12.8078 9.9398 14.0983 10.5616C13.2975 12.4378 11.9321 13.6811 9.98056 14.3007ZM12.0603 7.20723C11.2505 7.1104 10.5671 6.69815 9.9982 6.10645C9.51193 5.60039 8.91249 5.34736 8.21106 5.35725C7.54706 5.36629 6.97516 5.61158 6.51428 6.09096C5.91268 6.71622 5.18758 7.09878 4.33252 7.23692C4.2215 7.25499 4.10919 7.27565 3.9973 7.27651C3.35353 7.28038 2.70976 7.27823 2.066 7.27823C2.3044 5.02289 4.35232 2.32517 7.62538 2.00458C11.1683 1.65774 14.0084 4.24916 14.4512 7.31868C13.6426 7.28555 12.8448 7.30104 12.0603 7.20723Z" fill="#666666"/>
<path d="M8.26007 8.25431C7.99327 8.24742 7.7652 8.4699 7.76563 8.7367C7.76563 8.99747 7.98337 9.21694 8.24415 9.21952C8.50493 9.22167 8.72611 9.00608 8.73085 8.74487C8.73515 8.4841 8.52128 8.26076 8.26007 8.25431Z" fill="#666666"/>
</svg>
